<svg version="1.1" id="Layer_1" xmlns="http://www.w3.org/2000/svg" xmlns:xlink="http://www.w3.org/1999/xlink" x="0px" y="0px"
	 width="100%" viewBox="0 0 221 221" enable-background="new 0 0 221 221" xml:space="preserve">
<path fill="#000000" opacity="1.000000" stroke="none" 
	d="
M1.000000,82.000000 
	C1.000000,54.666668 1.000000,27.833336 1.000000,1.000004 
	C74.666664,1.000002 148.333328,1.000002 222.000000,1.000001 
	C222.000000,74.666656 222.000000,148.333313 222.000000,221.999969 
	C148.333344,221.999985 74.666695,221.999985 1.000022,222.000000 
	C1.000000,175.500000 1.000000,129.000000 1.000000,82.000000 
M70.667847,24.724375 
	C70.526276,24.619776 70.384705,24.515179 70.715210,23.855711 
	C75.861763,18.478966 81.008308,13.102221 86.154854,7.725477 
	C36.295376,22.061855 -0.090163,71.168060 10.981627,129.654648 
	C14.702877,149.312103 23.279230,166.556534 36.797623,181.278305 
	C57.437889,203.755936 83.631676,215.043732 113.597717,215.738251 
	C147.367523,216.520905 195.022873,198.076645 213.862762,147.315506 
	C210.614395,149.536758 208.075577,151.473694 205.350555,153.098312 
	C197.344254,157.871506 189.264023,162.520691 180.730728,166.811005 
	C180.562073,166.685242 180.393402,166.559479 180.679428,165.905289 
	C188.864227,156.407867 195.223206,145.731796 198.875992,133.812103 
	C204.226059,116.353882 204.641922,98.518738 201.055145,80.556610 
	C195.675476,53.615971 180.820953,33.427708 156.855743,20.562611 
	C137.729767,10.295322 116.892944,9.429368 96.148552,14.605219 
	C87.458313,16.773487 79.407608,21.504965 70.667847,24.724375 
z"/>
<path fill="#F7F9F7" opacity="1.000000" stroke="none" 
	d="
M181.212753,167.218430 
	C189.264023,162.520691 197.344254,157.871506 205.350555,153.098312 
	C208.075577,151.473694 210.614395,149.536758 213.862762,147.315506 
	C195.022873,198.076645 147.367523,216.520905 113.597717,215.738251 
	C83.631676,215.043732 57.437889,203.755936 36.797623,181.278305 
	C23.279230,166.556534 14.702877,149.312103 10.981627,129.654648 
	C-0.090163,71.168060 36.295376,22.061855 86.154854,7.725477 
	C81.008308,13.102221 75.861763,18.478966 70.260696,24.325909 
	C69.667130,25.128069 69.528076,25.460033 69.389015,25.791996 
	C69.948059,25.551697 70.507095,25.311398 71.066139,25.071102 
	C79.407608,21.504965 87.458313,16.773487 96.148552,14.605219 
	C116.892944,9.429368 137.729767,10.295322 156.855743,20.562611 
	C180.820953,33.427708 195.675476,53.615971 201.055145,80.556610 
	C204.641922,98.518738 204.226059,116.353882 198.875992,133.812103 
	C195.223206,145.731796 188.864227,156.407867 180.229004,166.364471 
	C179.663254,167.163895 179.547897,167.504150 179.432541,167.844406 
	C180.025940,167.635742 180.619354,167.427078 181.212753,167.218430 
M161.718277,75.926643 
	C161.937378,76.447769 162.156479,76.968895 162.375595,77.490013 
	C162.596252,77.410202 162.816910,77.330383 163.037567,77.250565 
	C162.764725,76.439522 162.491867,75.628471 162.060959,74.129349 
	C151.612137,53.237900 128.734406,40.924866 105.553612,44.197666 
	C87.590553,46.733799 73.591370,55.546345 64.246170,72.228317 
	C63.419537,73.854088 62.592907,75.479858 61.766277,77.105629 
	C62.146687,77.298729 62.527100,77.491837 62.907509,77.684937 
	C63.773563,75.924202 64.639618,74.163467 66.134094,72.184311 
	C66.840675,71.487007 67.618576,70.848030 68.243439,70.083900 
	C86.133125,48.207253 119.587036,42.581425 143.043549,58.250664 
	C149.941956,62.858891 155.420776,69.592255 161.718277,75.926643 
M27.242970,161.182190 
	C49.953590,196.801773 82.441399,213.697586 124.560677,210.834290 
	C157.365814,208.604202 193.273148,184.513214 203.166763,159.471909 
	C158.749573,189.748047 113.396507,191.991745 73.861542,153.698578 
	C32.236855,113.381317 34.685139,66.661034 66.456596,20.353235 
	C22.171028,41.464405 -4.801832,105.317230 27.242970,161.182190 
M89.771484,162.727310 
	C109.071999,174.933899 130.069427,179.265244 152.744904,177.074539 
	C164.597198,175.929489 173.482590,170.955185 180.711578,161.415405 
	C197.145126,139.728729 203.688385,115.611847 199.781174,88.813133 
	C195.861099,61.926128 183.449875,40.079773 159.783966,25.699760 
	C131.589981,8.568379 92.084183,10.789950 61.872005,35.342369 
	C60.148788,36.742764 58.952625,38.957603 57.902744,40.995155 
	C46.575687,62.978115 44.314976,85.950882 50.749550,109.775536 
	C51.875134,113.943123 53.488453,117.978981 54.876511,122.075676 
	C55.916100,120.744469 55.946636,119.764687 55.911324,118.787292 
	C55.594757,110.025002 54.063068,101.106537 55.178699,92.531952 
	C57.971661,71.065620 69.289803,54.768784 89.434494,46.276283 
	C109.510651,37.812668 129.404572,39.585060 147.114273,52.830875 
	C166.453613,67.295547 172.799271,87.555542 170.956284,111.015808 
	C168.255875,145.390320 136.714783,170.138412 102.815300,164.237854 
	C98.913353,163.558685 95.137192,162.177399 91.264168,161.289841 
	C90.674324,161.154694 89.874039,161.937836 89.771484,162.727310 
M61.971489,127.604408 
	C65.437767,133.354553 68.059738,139.886978 72.527618,144.709076 
	C86.281601,159.553528 103.536606,164.621689 123.516075,161.031342 
	C149.167419,156.421768 167.046921,132.726913 167.888397,109.001877 
	C168.547943,90.406616 160.438675,75.412598 146.240540,63.907536 
	C132.723602,52.954453 116.949326,50.916130 100.199417,53.956596 
	C84.511375,56.804310 73.761253,66.541603 65.441093,79.262512 
	C60.064072,87.483582 57.262405,97.034981 57.297306,106.720985 
	C57.321644,113.473709 59.991245,120.216904 61.971489,127.604408 
z"/>
<path fill="#4B8F44" opacity="1.000000" stroke="none" 
	d="
M27.084993,160.850891 
	C-4.801832,105.317230 22.171028,41.464405 66.456596,20.353235 
	C34.685139,66.661034 32.236855,113.381317 73.861542,153.698578 
	C113.396507,191.991745 158.749573,189.748047 203.166763,159.471909 
	C193.273148,184.513214 157.365814,208.604202 124.560677,210.834290 
	C82.441399,213.697586 49.953590,196.801773 27.084993,160.850891 
z"/>
<path fill="#184626" opacity="1.000000" stroke="none" 
	d="
M89.471283,162.511780 
	C89.874039,161.937836 90.674324,161.154694 91.264168,161.289841 
	C95.137192,162.177399 98.913353,163.558685 102.815300,164.237854 
	C136.714783,170.138412 168.255875,145.390320 170.956284,111.015808 
	C172.799271,87.555542 166.453613,67.295547 147.114273,52.830875 
	C129.404572,39.585060 109.510651,37.812668 89.434494,46.276283 
	C69.289803,54.768784 57.971661,71.065620 55.178699,92.531952 
	C54.063068,101.106537 55.594757,110.025002 55.911324,118.787292 
	C55.946636,119.764687 55.916100,120.744469 54.876511,122.075676 
	C53.488453,117.978981 51.875134,113.943123 50.749550,109.775536 
	C44.314976,85.950882 46.575687,62.978115 57.902744,40.995155 
	C58.952625,38.957603 60.148788,36.742764 61.872005,35.342369 
	C92.084183,10.789950 131.589981,8.568379 159.783966,25.699760 
	C183.449875,40.079773 195.861099,61.926128 199.781174,88.813133 
	C203.688385,115.611847 197.145126,139.728729 180.711578,161.415405 
	C173.482590,170.955185 164.597198,175.929489 152.744904,177.074539 
	C130.069427,179.265244 109.071999,174.933899 89.471283,162.511780 
z"/>
<path fill="#000000" opacity="1.000000" stroke="none" 
	d="
M61.725357,127.284378 
	C59.991245,120.216904 57.321644,113.473709 57.297306,106.720985 
	C57.262405,97.034981 60.064072,87.483582 65.441093,79.262512 
	C73.761253,66.541603 84.511375,56.804310 100.199417,53.956596 
	C116.949326,50.916130 132.723602,52.954453 146.240540,63.907536 
	C160.438675,75.412598 168.547943,90.406616 167.888397,109.001877 
	C167.046921,132.726913 149.167419,156.421768 123.516075,161.031342 
	C103.536606,164.621689 86.281601,159.553528 72.527618,144.709076 
	C68.059738,139.886978 65.437767,133.354553 61.725357,127.284378 
M92.965279,96.968971 
	C90.476166,98.307961 88.006927,99.685577 85.494164,100.978630 
	C78.301155,104.680069 71.090477,108.347198 63.886749,112.027824 
	C63.972321,112.430977 64.057892,112.834129 64.143463,113.237282 
	C75.047455,115.191963 85.951447,117.146645 96.611649,119.057625 
	C98.326096,130.316177 99.964745,141.076950 101.603386,151.837723 
	C102.017807,151.866867 102.432236,151.895996 102.846657,151.925140 
	C108.055824,142.045303 113.264992,132.165482 118.285400,122.643639 
	C129.548996,124.436523 140.550339,126.187653 153.021347,128.172729 
	C145.230347,120.141548 138.531723,113.008446 131.549561,106.164604 
	C129.156143,103.818604 128.732483,102.029984 130.390411,99.030289 
	C135.060974,90.579742 139.390900,81.940918 144.503464,72.132423 
	C141.792999,73.297874 140.329895,73.847771 138.936981,74.539070 
	C131.290619,78.333900 123.716148,82.281456 115.973877,85.867584 
	C114.645462,86.482880 111.994507,86.255356 111.032394,85.314690 
	C105.721695,80.122398 100.805580,74.529503 95.621780,69.202812 
	C93.783424,67.313789 91.572342,65.787498 88.598412,63.322163 
	C89.028191,66.466362 89.274330,68.228996 89.509377,69.993095 
	C90.669281,78.698837 91.826256,87.404961 92.965279,96.968971 
z"/>
<path fill="#ACADAE" opacity="1.000000" stroke="none" 
	d="
M64.754410,71.784927 
	C73.591370,55.546345 87.590553,46.733799 105.553612,44.197666 
	C128.734406,40.924866 151.612137,53.237900 161.974396,74.608971 
	C161.887848,75.088593 161.550186,75.351669 161.550186,75.351669 
	C155.420776,69.592255 149.941956,62.858891 143.043549,58.250664 
	C119.587036,42.581425 86.133125,48.207253 68.243439,70.083900 
	C67.618576,70.848030 66.840675,71.487007 65.630875,72.140526 
	C65.127647,72.096741 64.754410,71.784927 64.754410,71.784927 
z"/>
<path fill="#ACADAE" opacity="1.000000" stroke="none" 
	d="
M65.316658,72.249741 
	C64.639618,74.163467 63.773563,75.924202 62.907509,77.684937 
	C62.527100,77.491837 62.146687,77.298729 61.766277,77.105629 
	C62.592907,75.479858 63.419537,73.854088 64.500290,72.006622 
	C64.754410,71.784927 65.127647,72.096741 65.316658,72.249741 
z"/>
<path fill="#ACADAE" opacity="1.000000" stroke="none" 
	d="
M162.053436,74.953011 
	C162.491867,75.628471 162.764725,76.439522 163.037567,77.250565 
	C162.816910,77.330383 162.596252,77.410202 162.375595,77.490013 
	C162.156479,76.968895 161.937378,76.447769 161.634232,75.639160 
	C161.550186,75.351669 161.887848,75.088593 162.053436,74.953011 
z"/>
<path fill="#000000" opacity="1.000000" stroke="none" 
	d="
M70.866989,24.897738 
	C70.507095,25.311398 69.948059,25.551697 69.389015,25.791996 
	C69.528076,25.460033 69.667130,25.128069 70.024658,24.603344 
	C70.384705,24.515179 70.526276,24.619776 70.866989,24.897738 
z"/>
<path fill="#000000" opacity="1.000000" stroke="none" 
	d="
M180.971741,167.014709 
	C180.619354,167.427078 180.025940,167.635742 179.432541,167.844406 
	C179.547897,167.504150 179.663254,167.163895 180.001663,166.628677 
	C180.393402,166.559479 180.562073,166.685242 180.971741,167.014709 
z"/>
<path fill="#F5FAF8" opacity="1.000000" stroke="none" 
	d="
M92.974770,96.539963 
	C91.826256,87.404961 90.669281,78.698837 89.509377,69.993095 
	C89.274330,68.228996 89.028191,66.466362 88.598412,63.322163 
	C91.572342,65.787498 93.783424,67.313789 95.621780,69.202812 
	C100.805580,74.529503 105.721695,80.122398 111.032394,85.314690 
	C111.994507,86.255356 114.645462,86.482880 115.973877,85.867584 
	C123.716148,82.281456 131.290619,78.333900 138.936981,74.539070 
	C140.329895,73.847771 141.792999,73.297874 144.503464,72.132423 
	C139.390900,81.940918 135.060974,90.579742 130.390411,99.030289 
	C128.732483,102.029984 129.156143,103.818604 131.549561,106.164604 
	C138.531723,113.008446 145.230347,120.141548 153.021347,128.172729 
	C140.550339,126.187653 129.548996,124.436523 118.285400,122.643639 
	C113.264992,132.165482 108.055824,142.045303 102.846657,151.925140 
	C102.432236,151.895996 102.017807,151.866867 101.603386,151.837723 
	C99.964745,141.076950 98.326096,130.316177 96.611649,119.057625 
	C85.951447,117.146645 75.047455,115.191963 64.143463,113.237282 
	C64.057892,112.834129 63.972321,112.430977 63.886749,112.027824 
	C71.090477,108.347198 78.301155,104.680069 85.494164,100.978630 
	C88.006927,99.685577 90.476166,98.307961 92.974770,96.539963 
M135.861237,115.055801 
	C132.636124,111.889893 129.411011,108.723984 125.902145,104.949745 
	C125.913643,103.298912 125.925140,101.648079 126.272827,99.391617 
	C128.241425,95.613197 130.210037,91.834770 132.581787,87.520370 
	C134.117477,84.891876 135.653152,82.263382 137.188828,79.634880 
	C136.877548,79.431465 136.566269,79.228058 136.254990,79.024643 
	C133.835892,80.351837 131.416794,81.679031 128.292099,83.096245 
	C124.137032,85.259293 119.981972,87.422340 115.071037,89.835220 
	C112.734886,89.178436 110.398727,88.521652 107.975647,87.184563 
	C103.329163,82.602303 98.682678,78.020050 94.036194,73.437790 
	C93.580467,73.738655 93.124741,74.039520 92.669014,74.340378 
	C93.775307,80.226799 94.881592,86.113213 95.898758,92.855476 
	C97.165504,98.048981 94.841232,100.947952 89.953430,102.294159 
	C89.190567,102.504265 88.532593,103.095222 87.114166,103.731926 
	C82.199821,106.152199 77.285469,108.572472 72.371117,110.992737 
	C72.498756,111.338608 72.626389,111.684471 72.754028,112.030342 
	C77.835678,112.698608 82.917328,113.366867 88.693214,114.382950 
	C100.775452,117.312965 98.700920,114.459610 100.999329,128.024857 
	C101.054161,128.348526 101.132744,128.668182 101.128899,129.807205 
	C101.844742,134.197937 102.560593,138.588669 103.276443,142.979401 
	C103.596329,143.013824 103.916206,143.048248 104.236092,143.082672 
	C106.524078,138.401138 108.812065,133.719620 111.632393,128.607773 
	C114.318794,124.789787 114.320152,117.772301 122.761139,120.190117 
	C126.507195,120.750381 130.253250,121.310654 134.777740,122.103378 
	C137.410477,122.514648 140.043228,122.925919 143.867081,123.523254 
	C140.671921,120.250954 138.416504,117.941071 135.861237,115.055801 
z"/>
<path fill="#167E40" opacity="1.000000" stroke="none" 
	d="
M125.936646,99.997246 
	C125.925140,101.648079 125.913643,103.298912 125.884102,105.644188 
	C124.577812,110.861130 123.289566,115.383621 122.001328,119.906120 
	C114.320152,117.772301 114.318794,124.789787 110.910995,128.814819 
	C107.193153,129.011154 104.196701,129.000427 101.200256,128.989700 
	C101.132744,128.668182 101.054161,128.348526 100.999329,128.024857 
	C98.700920,114.459610 100.775452,117.312965 88.344009,113.740662 
	C87.938576,109.902275 87.882347,106.706169 87.826118,103.510063 
	C88.532593,103.095222 89.190567,102.504265 89.953430,102.294159 
	C94.841232,100.947952 97.165504,98.048981 96.328865,92.421219 
	C100.526840,90.612938 104.294708,89.238907 108.062576,87.864876 
	C110.398727,88.521652 112.734886,89.178436 115.591789,90.044441 
	C119.387238,93.501526 122.661934,96.749390 125.936646,99.997246 
M107.558975,97.999779 
	C100.935120,98.283524 97.818359,101.658691 98.000328,108.350929 
	C98.165596,114.428940 101.970764,118.045952 108.150757,117.999458 
	C114.047737,117.955086 117.838699,114.316193 117.998878,108.546379 
	C118.177635,102.107605 114.672569,98.253487 107.558975,97.999779 
z"/>
<path fill="#0E8043" opacity="1.000000" stroke="none" 
	d="
M108.019112,87.524719 
	C104.294708,89.238907 100.526840,90.612938 96.373428,91.993301 
	C94.881592,86.113213 93.775307,80.226799 92.669014,74.340378 
	C93.124741,74.039520 93.580467,73.738655 94.036194,73.437790 
	C98.682678,78.020050 103.329163,82.602303 108.019112,87.524719 
z"/>
<path fill="#0E7F43" opacity="1.000000" stroke="none" 
	d="
M126.104736,99.694427 
	C122.661934,96.749390 119.387238,93.501526 115.969727,89.919525 
	C119.981972,87.422340 124.137032,85.259293 128.657837,83.410248 
	C130.075256,85.168282 131.126953,86.612312 132.178635,88.056351 
	C130.210037,91.834770 128.241425,95.613197 126.104736,99.694427 
z"/>
<path fill="#108043" opacity="1.000000" stroke="none" 
	d="
M122.381233,120.048119 
	C123.289566,115.383621 124.577812,110.861130 126.025970,105.948349 
	C129.411011,108.723984 132.636124,111.889893 135.867416,115.690018 
	C135.248825,118.173126 134.624069,120.022026 133.999298,121.870926 
	C130.253250,121.310654 126.507195,120.750381 122.381233,120.048119 
z"/>
<path fill="#18854B" opacity="1.000000" stroke="none" 
	d="
M87.470139,103.620995 
	C87.882347,106.706169 87.938576,109.902275 87.996887,113.566757 
	C82.917328,113.366867 77.835678,112.698608 72.754028,112.030342 
	C72.626389,111.684471 72.498756,111.338608 72.371117,110.992737 
	C77.285469,108.572472 82.199821,106.152199 87.470139,103.620995 
z"/>
<path fill="#18864D" opacity="1.000000" stroke="none" 
	d="
M101.164574,129.398453 
	C104.196701,129.000427 107.193153,129.011154 110.644821,129.029968 
	C108.812065,133.719620 106.524078,138.401138 104.236092,143.082672 
	C103.916206,143.048248 103.596329,143.013824 103.276443,142.979401 
	C102.560593,138.588669 101.844742,134.197937 101.164574,129.398453 
z"/>
<path fill="#178A57" opacity="1.000000" stroke="none" 
	d="
M132.380219,87.788361 
	C131.126953,86.612312 130.075256,85.168282 129.010620,83.365234 
	C131.416794,81.679031 133.835892,80.351837 136.254990,79.024643 
	C136.566269,79.228058 136.877548,79.431465 137.188828,79.634880 
	C135.653152,82.263382 134.117477,84.891876 132.380219,87.788361 
z"/>
<path fill="#088149" opacity="1.000000" stroke="none" 
	d="
M134.388519,121.987152 
	C134.624069,120.022026 135.248825,118.173126 136.017334,115.977707 
	C138.416504,117.941071 140.671921,120.250954 143.867081,123.523254 
	C140.043228,122.925919 137.410477,122.514648 134.388519,121.987152 
z"/>
<path fill="#1C7C3E" opacity="1.000000" stroke="none" 
	d="
M107.983200,97.999771 
	C114.672569,98.253487 118.177635,102.107605 117.998878,108.546379 
	C117.838699,114.316193 114.047737,117.955086 108.150757,117.999458 
	C101.970764,118.045952 98.165596,114.428940 98.000328,108.350929 
	C97.818359,101.658691 100.935120,98.283524 107.983200,97.999771 
z"/>
</svg>